<svg width="93" height="19" viewBox="0 0 93 19" xmlns="http://www.w3.org/2000/svg"><title>Page 1</title><g fill="none" fill-rule="evenodd"><text font-family="TimesNewRomanPSMT, Times New Roman" font-size="12" fill="#000"><tspan x="7.625" y="12.711">(</tspan></text><text font-family="TimesNewRomanPS-ItalicMT, Times New Roman" font-size="12" font-style="italic" fill="#000"><tspan x="12.313" y="12.711">a</tspan></text><text font-family="Symbol" font-size="12" fill="#000"><tspan x="20.438" y="11">−</tspan></text><text font-family="TimesNewRomanPS-ItalicMT, Times New Roman" font-size="12" font-style="italic" fill="#000"><tspan x="29.313" y="12.711">b</tspan></text><text font-family="TimesNewRomanPSMT, Times New Roman" font-size="12" fill="#000"><tspan x="35.25" y="12.711">)</tspan></text><text font-family="TimesNewRomanPSMT, Times New Roman" font-size="6.938" fill="#000"><tspan x="39.563" y="7.942">2</tspan></text><text font-family="Symbol" font-size="12" fill="#000"><tspan x="46.031" y="11">+</tspan></text><text font-family="TimesNewRomanPSMT, Times New Roman" font-size="12" fill="#000"><tspan x="54.656" y="12.711">(</tspan></text><text font-family="TimesNewRomanPS-ItalicMT, Times New Roman" font-size="12" font-style="italic" fill="#000"><tspan x="59.094" y="12.711">c</tspan></text><text font-family="Symbol" font-size="12" fill="#000"><tspan x="66.469" y="11">−</tspan></text><text font-family="TimesNewRomanPS-ItalicMT, Times New Roman" font-size="12" font-style="italic" fill="#000"><tspan x="75.594" y="12.711">d</tspan></text><text font-family="TimesNewRomanPSMT, Times New Roman" font-size="12" fill="#000"><tspan x="82.781" y="12.711">)</tspan></text><text font-family="TimesNewRomanPSMT, Times New Roman" font-size="6.938" fill="#000"><tspan x="87.094" y="7.942">2</tspan></text><path stroke="#000" d="M0.015625 12.84375L1.65625 11.609375 4.21875 17.109375 7.203125 0.953125 92.125 0.953125"/><path fill="#000" d="M0 12.84375L1.65625 11.59375 4.21875 17.125 7.1875 0.9375 92.125 0.9375 92.125 1.53125 7.65625 1.53125 4.53125 18.6875 3.9375 18.6875 1 12.53125 0.21875 13.15625z"/></g></svg>