<svg width="482" height="308" viewBox="0 0 482 308" xmlns="http://www.w3.org/2000/svg" xmlns:xlink="http://www.w3.org/1999/xlink"><title>Page 1</title><defs><path id="a" d="M0.3070831 -0.0000544L481.894183 -0.0000544 481.894183 307.760046 0.3070831 307.760046z"/></defs><g fill="none" fill-rule="evenodd"><mask id="b" fill="#fff"><use xlink:href="#a"/></mask><path fill="#FFF" mask="url(#b)" d="M0.3070831 307.760046L482.307083 307.760046 482.307083 -0.2399544 0.3070831 -0.2399544z"/><path d="M.307 284.286h482m-482-11.866h482m-482-11.866h482m-482-23.732h482m-482-11.866h482m-482-11.866h482m-482-23.732h482m-482-11.866h482m-482-11.866h482m-482-23.732h482m-482-11.866h482m-482-11.866h482M.307 94.43h482m-482-11.866h482m-482-11.866h482m-482-23.732h482M.307 35.1h482m-482-11.866h482M12.357 307.76v-308m12.05 308v-308m12.05 308v-308m24.1 308v-308m12.05 308v-308m12.05 308v-308m24.1 308v-308m12.05 308v-308m12.05 308v-308m24.1 308v-308m12.05 308v-308m12.05 308v-308m24.1 308v-308m12.05 308v-308m12.05 308v-308m24.1 308v-308m12.05 308v-308m12.05 308v-308m24.1 308v-308m12.05 308v-308m12.05 308v-308m24.1 308v-308m12.05 308v-308m12.05 308v-308m24.1 308v-308m12.05 308v-308m12.05 308v-308m24.1 308v-308m12.05 308v-308m12.05 308v-308" stroke="#929292" stroke-width=".2" mask="url(#b)"/><path d="M.307 296.153h482m-482-47.465h482m-482-47.464h482m-482-47.464h482m-482-47.464h482m-482-47.464h482m-482-47.465h482M.307 307.76v-308m48.2 308v-308m48.2 308v-308m48.2 308v-308m48.2 308v-308m48.2 308v-308m48.2 308v-308m48.2 308v-308m48.2 308v-308m48.2 308v-308m48.2 308v-308" stroke="#000" stroke-width=".3" mask="url(#b)"/><path fill="#000" mask="url(#b)" d="M482.3071 153.76L476.4717 150.8434 478.2223 153.76 476.4717 156.6767z"/><path d="M.307 153.76h482" stroke="#000" stroke-width="1.5" mask="url(#b)"/><text mask="url(#b)" font-family="Helvetica" font-size="7" fill="#000"><tspan x="-3.194" y="162.912">-5</tspan></text><text mask="url(#b)" font-family="Helvetica" font-size="7" fill="#000"><tspan x="45.006" y="162.912">-4</tspan></text><text mask="url(#b)" font-family="Helvetica" font-size="7" fill="#000"><tspan x="93.206" y="162.912">-3</tspan></text><text mask="url(#b)" font-family="Helvetica" font-size="7" fill="#000"><tspan x="141.406" y="162.912">-2</tspan></text><text mask="url(#b)" font-family="Helvetica" font-size="7" fill="#000"><tspan x="189.606" y="162.912">-1</tspan></text><text mask="url(#b)" font-family="Helvetica" font-size="7" fill="#000"><tspan x="231.443" y="162.912">0</tspan></text><text mask="url(#b)" font-family="Helvetica" font-size="7" fill="#000"><tspan x="287.173" y="162.912">1</tspan></text><text mask="url(#b)" font-family="Helvetica" font-size="7" fill="#000"><tspan x="335.373" y="162.912">2</tspan></text><text mask="url(#b)" font-family="Helvetica" font-size="7" fill="#000"><tspan x="383.573" y="162.912">3</tspan></text><text mask="url(#b)" font-family="Helvetica" font-size="7" fill="#000"><tspan x="431.773" y="162.912">4</tspan></text><text mask="url(#b)" font-family="Helvetica" font-size="7" fill="#000"><tspan x="479.973" y="162.912">5</tspan></text><path d="M12.357 154.927v-2.334m12.05 2.334v-2.334m12.05 2.334v-2.334m24.1 2.334v-2.334m12.05 2.334v-2.334m12.05 2.334v-2.334m24.1 2.334v-2.334m12.05 2.334v-2.334m12.05 2.334v-2.334m24.1 2.334v-2.334m12.05 2.334v-2.334m12.05 2.334v-2.334m24.1 2.334v-2.334m12.05 2.334v-2.334m12.05 2.334v-2.334m24.1 2.334v-2.334m12.05 2.334v-2.334m12.05 2.334v-2.334m24.1 2.334v-2.334m12.05 2.334v-2.334m12.05 2.334v-2.334m24.1 2.334v-2.334m12.05 2.334v-2.334m12.05 2.334v-2.334m24.1 2.334v-2.334m12.05 2.334v-2.334m12.05 2.334v-2.334m24.1 2.334v-2.334m12.05 2.334v-2.334m12.05 2.334v-2.334m-421.75 3.5v-4.666m48.2 4.666v-4.666m48.2 4.666v-4.666m48.2 4.666v-4.666m48.2 4.666v-4.666m48.2 4.666v-4.666m48.2 4.666v-4.666m48.2 4.666v-4.666m48.2 4.666v-4.666" stroke="#000" stroke-width="1.5" mask="url(#b)"/><path d="M324.414 172.564c0-.133.041-.228.123-.284a.438.438 0 0 1 .252-.085c.04 0 .082.006.123.018a.622.622 0 0 1 .133.059l.18.097a.258.258 0 0 0 .143.036c.086 0 .151-.021.198-.064.046-.043.165-.192.356-.448.126-.168.414-.576.862-1.226 0-.024-.04-.207-.118-.55-.079-.344-.15-.636-.216-.875-.065-.243-.123-.403-.174-.48-.051-.076-.147-.115-.287-.115a1.5 1.5 0 0 0-.282.052c-.09.02-.185.044-.288.071l-.046-.159.57-.194a4.56 4.56 0 0 1 .407-.124c.125-.03.232-.046.32-.046.144 0 .252.043.324.128.11.137.202.407.277.81l.108.585c.307-.472.547-.803.718-.995.153-.174.299-.304.436-.39a.74.74 0 0 1 .39-.127c.116 0 .21.017.281.05.13.062.195.179.195.35a.367.367 0 0 1-.097.271.34.34 0 0 1-.252.098.444.444 0 0 1-.107-.013.637.637 0 0 1-.108-.039l-.133-.056a1.305 1.305 0 0 0-.108-.044.262.262 0 0 0-.077-.018c-.154 0-.367.2-.641.598-.273.398-.41.628-.41.69 0 .05.031.217.095.5.063.281.132.58.207.894.069.297.127.502.175.615.078.185.167.277.266.277.093 0 .187-.051.282-.154.096-.102.24-.287.431-.554l.144.087c-.147.267-.3.494-.456.682-.298.356-.582.534-.852.534-.17 0-.306-.082-.405-.246a1.824 1.824 0 0 1-.17-.472l-.317-1.266-1.052 1.379c-.205.239-.363.4-.474.482a.676.676 0 0 1-.413.123c-.219 0-.368-.069-.446-.206a.476.476 0 0 1-.067-.256z" fill="#000" mask="url(#b)"/><path fill="#000" mask="url(#b)" d="M241.3071 -0.24L238.3894 5.5934 241.3071 3.8434 244.2248 5.5934z"/><path d="M241.307 307.76v-308" stroke="#000" stroke-width="1.5" mask="url(#b)"/><text mask="url(#b)" font-family="Helvetica" font-size="7" fill="#000"><tspan x="230.276" y="298.718">-3</tspan></text><text mask="url(#b)" font-family="Helvetica" font-size="7" fill="#000"><tspan x="230.276" y="251.254">-2</tspan></text><text mask="url(#b)" font-family="Helvetica" font-size="7" fill="#000"><tspan x="230.276" y="203.79">-1</tspan></text><text mask="url(#b)" font-family="Helvetica" font-size="7" fill="#000"><tspan x="231.443" y="108.862">1</tspan></text><text mask="url(#b)" font-family="Helvetica" font-size="7" fill="#000"><tspan x="231.443" y="61.398">2</tspan></text><text mask="url(#b)" font-family="Helvetica" font-size="7" fill="#000"><tspan x="231.443" y="13.933">3</tspan></text><path d="M240.14 284.286h2.334m-2.334-11.866h2.334m-2.334-11.866h2.334m-2.334-23.732h2.334m-2.334-11.866h2.334m-2.334-11.866h2.334m-2.334-23.732h2.334m-2.334-11.866h2.334m-2.334-11.866h2.334m-2.334-23.732h2.334m-2.334-11.866h2.334m-2.334-11.866h2.334M240.14 94.43h2.334m-2.334-11.866h2.334m-2.334-11.866h2.334m-2.334-23.732h2.334M240.14 35.1h2.334m-2.334-11.866h2.334m-3.501 272.919h4.668m-4.668-47.465h4.668m-4.668-47.464h4.668m-4.668-47.464h4.668m-4.668-47.464h4.668m-4.668-47.464h4.668m-4.668-47.465h4.668" stroke="#000" stroke-width="1.5" mask="url(#b)"/><path d="M219.133 89.279c0-.11.034-.204.102-.282.069-.079.168-.118.298-.118.085 0 .16.016.226.048.064.033.133.08.205.141l.071.052c.02.017.044.03.07.038a.268.268 0 0 0 .084.013c.168 0 .437-.221.808-.664.371-.443.556-.765.556-.966 0-.192-.064-.568-.192-1.128a36.9 36.9 0 0 0-.372-1.497c-.167-.616-.32-1.033-.459-1.251a.68.68 0 0 0-.613-.329c-.02 0-.055.003-.105.008l-.254.028v-.169l1.4-.266.108-.01c.086-.01.25.374.493 1.153.218.7.355 1.21.41 1.528l.205 1.22c.36-.602.622-1.063.79-1.384.328-.633.492-1.075.492-1.328a.5.5 0 0 0-.03-.172c-.021-.056-.069-.105-.144-.146l-.087-.046a.78.78 0 0 1-.193-.154.415.415 0 0 1-.11-.302c0-.106.034-.195.103-.267.068-.072.17-.108.307-.108.171 0 .31.05.416.151.106.101.159.273.159.516 0 .366-.2.953-.6 1.763a17.726 17.726 0 0 1-1.031 1.8c-.475.725-.884 1.284-1.226 1.677-.544.618-.995.927-1.354.927a.581.581 0 0 1-.372-.128.421.421 0 0 1-.161-.348z" fill="#000" mask="url(#b)"/><path stroke="#000" mask="url(#b)" d="M0.01531555 -0.53166665L482.598843 -0.53166665 482.598843 308.051649 0.01531555 308.051649z"/><path d="M.307 163.253l.118.004.117.005.118.005.118.004.117.005.118.005.118.004.117.005.118.005.118.004.118.005.117.005.118.004.118.005.117.005.118.005.118.004.117.005.118.005.118.004.117.005.118.005.118.005.117.004.118.005.118.005.117.005.118.004.118.005.117.005.118.005.118.004.117.005.118.005.118.005.117.005.118.004.118.005.117.005.118.005.118.005.117.005.118.004.118.005.117.005.118.005.118.005.118.005.117.004.118.005.118.005.117.005.118.005.118.005.117.005.118.005.118.005.117.004.118.005.118.005.117.005.118.005.118.005.117.005.118.005.118.005.117.005.118.005.118.005.117.005.118.005.118.005.117.005.118.005.118.005.117.005.118.005.118.005.117.005.118.005.118.005.117.005.118.005.118.005.118.005.117.005.118.005.118.005.117.005.118.005.118.005.117.005.118.005.118.005.117.006.118.005.118.005.117.005.118.005.118.005.117.005.118.005.118.006.117.005.118.005.118.005.117.005.118.005.118.005.117.006.118.005.118.005.117.005.118.005.118.006.117.005.118.005.118.005.118.005.117.006.118.005.118.005.117.005.118.006.118.005.117.005.118.005.118.006.117.005.118.005.118.006.117.005.118.005.118.005.117.006.118.005.118.005.117.006.118.005.118.005.117.006.118.005.118.005.117.006.118.005.118.006.117.005.118.005.118.006.117.005.118.005.118.006.117.005.118.006.118.005.118.006.117.005.118.005.118.006.117.005.118.006.118.005.117.006.118.005.118.006.117.005.118.006.118.005.117.006.118.005.118.006.117.005.118.006.118.005.117.006.118.005.118.006.117.005.118.006.118.006.117.005.118.006.118.005.117.006.118.005.118.006.117.006.118.005.118.006.117.006.118.005.118.006.118.006.117.005.118.006.118.005.117.006.118.006.118.006.117.005.118.006.118.006.117.005.118.006.118.006.117.005.118.006.118.006.117.006.118.005.118.006.117.006.118.006.118.005.117.006.118.006.118.006.117.006.118.005.118.006.117.006.118.006.118.006.117.006.118.005.118.006.117.006.118.006.118.006.118.006.117.006.118.006.118.005.117.006.118.006.118.006.117.006.118.006.118.006.117.006.118.006.118.006.117.006.118.006.118.006.117.006.118.006.118.006.117.006.118.006.118.006.117.006.118.006.118.006.117.006.118.006.118.006.117.006.118.006.118.006.117.006.118.006.118.006.117.007.118.006.118.006.118.006.117.006.118.006.118.006.117.007.118.006.118.006.117.006.118.006.118.006.117.007.118.006.118.006.117.006.118.006.118.007.117.006.118.006.118.006.117.007.118.006.118.006.117.006.118.007.118.006.117.006.118.007.118.006.117.006.118.007.118.006.117.006.118.007.118.006.117.006.118.007.118.006.118.007.117.006.118.006.118.007.117.006.118.007.118.006.117.006.118.007.118.006.117.007.118.006.118.007.117.006.118.007.118.006.117.007.118.006.118.007.117.006.118.007.118.006.117.007.118.007.118.006.117.007.118.006.118.007.117.006.118.007.118.007.117.006.118.007.118.007.117.006.118.007.118.007.118.006.117.007.118.007.118.006.117.007.118.007.118.006.117.007.118.007.118.007.117.006.118.007.118.007.117.007.118.006.118.007.117.007.118.007.118.007.117.006.118.007.118.007.117.007.118.007.118.007.117.006.118.007.118.007.117.007.118.007.118.007.117.007.118.007.118.007.118.007.117.007.118.007.118.007.117.006.118.007.118.007.117.007.118.007.118.007.117.008.118.007.118.007.117.007.118.007.118.007.117.007.118.007.118.007.117.007.118.007.118.007.117.007.118.008.118.007.117.007.118.007.118.007.117.007.118.008.118.007.117.007.118.007.118.007.117.008.118.007.118.007.118.007.117.008.118.007.118.007.117.008.118.007.118.007.117.008.118.007.118.007.117.008.118.007.118.007.117.008.118.007.118.007.117.008.118.007.118.008.117.007.118.008.118.007.117.007.118.008.118.007.117.008.118.007.118.008.117.007.118.008.118.007.117.008.118.007.118.008.117.008.118.007.118.008.118.007.117.008.118.008.118.007.117.008.118.008.118.007.117.008.118.008.118.007.117.008.118.008.118.007.117.008.118.008.118.008.117.007.118.008.118.008.117.008.118.007.118.008.117.008.118.008.118.008.117.008.118.007.118.008.117.008.118.008.118.008.117.008.118.008.118.008.117.008.118.008.118.007.118.008.117.008.118.008.118.008.117.008.118.008.118.008.117.008.118.009.118.008.117.008.118.008.118.008.117.008.118.008.118.008.117.008.118.008.118.009.117.008.118.008.118.008.117.008.118.008.118.009.117.008.118.008.118.008.117.009.118.008.118.008.117.008.118.009.118.008.117.008.118.009.118.008.118.008.117.009.118.008.118.009.117.008.118.008.118.009.117.008.118.009.118.008.117.009.118.008.118.009.117.008.118.009.118.008.117.009.118.008.118.009.117.008.118.009.118.008.117.009.118.009.118.008.117.009.118.009.118.008.117.009.118.009.118.008.117.009.118.009.118.008.117.01.118.008.118.009.118.008.117.01.118.008.118.009.117.009.118.008.118.01.117.008.118.009.118.009.117.009.118.009.118.009.117.009.118.009.118.008.117.01.118.008.118.01.117.008.118.01.118.008.117.01.118.009.118.009.117.009.118.009.118.009.117.009.118.01.118.008.117.01.118.009.118.009.117.009.118.01.118.008.118.01.117.009.118.01.118.008.117.01.118.009.118.01.117.008.118.01.118.01.117.009.118.009.118.01.117.009.118.01.118.009.117.009.118.01.118.009.117.01.118.009.118.01.117.009.118.01.118.009.117.01.118.009.118.01.117.01.118.009.118.01.117.01.118.009.118.01.118.009.117.01.118.01.118.01.117.009.118.01.118.01.117.01.118.009.118.01.117.01.118.01.118.01.117.01.118.009.118.01.117.01.118.01.118.01.117.01.118.01.118.01.117.01.118.01.118.01.117.01.118.01.118.01.117.01.118.01.118.01.117.01.118.01.118.01.117.01.118.01.118.01.118.01.117.011.118.01.118.01.117.01.118.011.118.01.117.01.118.011.118.01.117.01.118.011.118.01.117.01.118.011.118.01.117.011.118.01.118.011.117.01.118.011.118.01.117.011.118.01.118.011.117.01.118.011.118.011.117.01.118.011.118.011.117.01.118.011.118.011.117.01.118.012.118.01.118.011.117.01.118.012.118.01.117.011.118.011.118.011.117.01.118.012.118.01.117.012.118.01.118.012.117.01.118.012.118.01.117.012.118.01.118.012.117.01.118.012.118.011.117.011.118.011.118.011.117.012.118.01.118.012.117.011.118.012.118.01.117.012.118.011.118.012.118.011.117.011.118.012.117.011.118.012.118.011.118.011.117.012.118.011.118.012.117.011.118.012.118.011.117.012.118.012.118.011.117.012.118.011.118.012.117.012.118.011.118.012.117.012.118.012.118.011.117.012.118.012.118.012.117.012.118.012.118.011.117.012.118.012.118.012.117.012.118.012.118.012.117.012.118.012.118.012.118.012.117.012.118.012.118.012.117.013.118.012.118.012.117.012.118.012.118.013.117.012.118.012.118.012.117.013.118.012.118.012.117.013.118.012.118.013.117.012.118.012.118.013.117.012.118.013.118.013.117.012.118.013.118.012.117.013.118.012.118.013.117.013.118.013.118.012.117.013.118.013.118.012.118.013.117.013.118.013.118.013.117.013.118.013.118.012.117.013.118.013.118.013.117.013.118.013.118.013.117.014.118.013.118.013.117.013.118.013.118.013.117.013.118.014.118.013.117.013.118.014.118.013.117.013.118.013.118.014.117.013.118.014.118.013.117.014.118.013.118.014.117.013.118.014.118.013.118.014.117.014.118.013.118.014.117.014.118.013.118.014.117.014.118.014.118.013.117.014.118.014.118.014.117.014.118.014.118.014.117.014.118.014.118.014.117.014.118.014.118.014.117.014.118.014.118.014.117.015.118.014.118.014.117.014.118.015.118.014.117.014.118.015.118.014.118.014.117.015.118.014.118.015.117.014.118.015.118.014.117.015.118.015.118.014.117.015.118.015.118.014.117.015.118.015.118.014.117.015.118.015.118.015.117.015.118.015.118.015.117.015.118.015.118.015.117.015.118.015.118.015.117.015.118.015.118.015.117.016.118.015.118.015.117.015.118.016.118.015.118.016.117.015.118.015.118.016.117.015.118.016.118.015.117.016.118.016.118.015.117.016.118.015.118.016.117.016.118.016.118.015.117.016.118.016.118.016.117.016.118.016.118.016.117.016.118.016.118.016.117.016.118.016.118.016.117.016.118.017.118.016.117.016.118.016.118.017.117.016.118.016.118.017.118.016.117.017.118.016.118.017.117.016.118.017.118.017.117.016.118.017.118.017.117.016.118.017.118.017.117.017.118.017.118.017.117.017.118.016.118.017.117.017.118.018.118.017.117.017.118.017.118.017.117.017.118.018.118.017.117.017.118.018.118.017.117.017.118.018.118.017.118.018.117.017.118.018.117.018.118.017.118.018.118.018.117.017.118.018.118.018.117.018.118.018.118.018.117.018.118.018.118.018.117.018.118.018.118.018.117.018.118.018.118.019.117.018.118.018.118.018.117.019.118.018.118.019.117.018.118.019.118.018.117.019.118.018.118.02.117.018.118.019.118.018.117.02.118.018.118.019.118.019.117.019.118.019.118.019.117.019.118.019.118.02.117.018.118.02.118.019.117.02.118.019.118.019.117.02.118.019.118.02.117.019.118.02.118.019.117.02.118.02.118.02.117.019.118.02.118.02.117.02.118.02.118.02.117.02.118.02.118.02.117.02.118.02.118.02.117.02.118.02.118.021.118.02.117.02.118.021.118.02.117.021.118.021.118.02.117.021.118.021.118.02.117.022.118.02.118.021.117.021.118.021.118.021.117.021.118.022.118.02.117.022.118.021.118.021.117.022.118.021.118.022.117.021.118.022.118.021.117.022.118.021.118.022.117.022.118.022.118.021.117.022.118.022.118.022.118.022.117.022.118.022.118.023.117.022.118.022.118.022.117.023.118.022.118.023.117.022.118.023.118.022.117.023.118.023.118.022.117.023.118.023.118.023.117.023.118.023.118.023.117.023.118.023.118.023.117.024.118.023.118.023.117.024.118.023.118.024.117.023.118.024.118.023.118.024.117.024.118.024.118.024.117.023.118.024.118.024.117.025.118.024.118.024.117.024.118.024.118.025.117.024.118.025.118.024.117.025.118.024.118.025.117.025.118.025.118.024.117.025.118.025.118.025.117.025.118.026.118.025.117.025.118.025.118.026.117.025.118.026.118.025.117.026.118.025.118.026.118.026.117.026.118.026.118.026.117.026.118.026.118.026.117.026.118.026.118.027.117.026.118.026.118.027.117.026.118.027.118.027.117.026.118.027.118.027.117.027.118.027.118.027.117.027.118.027.118.028.117.027.118.027.118.028.117.027.118.028.118.028.117.027.118.028.118.028.117.028.118.028.118.028.118.028.117.028.118.029.118.028.117.028.118.029.118.028.117.029.118.028.118.03.117.028.118.029.118.029.117.029.118.029.118.03.117.028.118.03.118.029.117.03.118.029.118.03.117.03.118.029.118.03.117.03.118.03.118.03.117.03.118.03.118.03.117.03.118.031.118.03.118.031.117.03.118.031.117.031.118.031.118.031.118.031.117.031.118.031.118.032.117.031.118.031.118.032.117.032.118.031.118.032.117.032.118.032.118.032.117.032.118.032.118.032.117.033.118.032.118.032.117.033.118.033.118.032.117.033.118.033.118.033.117.033.118.033.118.034.117.033.118.034.118.033.117.034.118.033.118.034.118.034.117.034.118.034.118.034.117.034.118.035.118.034.117.035.118.034.118.035.117.035.118.035.118.035.117.035.118.035.118.035.117.036.118.035.118.036.117.035.118.036.118.036.117.036.118.036.118.036.117.036.118.036.118.037.117.036.118.037.118.037.117.037.118.037.118.037.117.037.118.037.118.037.118.038.117.037.118.038.118.038.117.038.118.038.118.038.117.038.118.038.118.039.117.038.118.039.118.038.117.04.118.038.118.04.117.039.118.039.118.04.117.039.118.04.118.039.117.04.118.04.118.04.117.04.118.04.118.04.117.041.118.041.118.04.117.042.118.04.118.042.117.041.118.041.118.042.118.042.117.041.118.042.118.042.117.042.118.042.118.043.117.042.118.043.118.043.117.043.118.043.118.043.117.043.118.043.118.044.117.043.118.044.118.044.117.044.118.044.118.045.117.044.118.045.118.044.117.045.118.045.118.045.117.045.118.046.118.045.117.046.118.046.118.046.118.046.117.046.118.046.118.047.117.047.118.046.118.047.117.047.118.048.118.047.117.048.118.047.118.048.117.048.118.048.118.049.117.048.118.049.118.048.117.05.118.048.118.05.117.049.118.05.118.05.117.049.118.05.118.05.117.05.118.051.118.05.117.051.118.051.118.052.117.05.118.052.118.052.118.052.117.052.118.052.118.052.117.053.118.053.118.052.117.053.118.054.118.053.117.054.118.053.118.054.117.054.118.055.118.054.117.055.118.054.118.055.117.056.118.055.118.056.117.055.118.056.118.056.117.057.118.056.118.057.117.057.118.057.118.057.117.058.118.058.118.057.117.059.118.058.118.058.117.059.118.059.118.059.118.06.117.059.118.06.118.06.117.06.118.06.118.06.117.061.118.061.118.062.117.061.118.062.118.062.117.062.118.062.118.063.117.062.118.063.118.064.117.063.118.064.118.064.117.064.118.064.118.065.117.065.118.065.118.065.117.066.118.066.118.066.118.066.117.066.118.067.117.067.118.068.118.067.118.068.117.068.118.068.118.069.117.069.118.069.118.07.117.069.118.07.118.07.117.07.118.07.118.072.117.07.118.072.118.072.117.072.118.072.118.073.117.073.118.073.118.074.117.073.118.074.118.075.117.074.118.075.118.075.117.076.118.076.118.076.117.076.118.077.118.077.118.077.117.078.118.078.118.078.117.078.118.08.118.078.117.08.118.08.118.08.117.08.118.081.118.081.117.082.118.082.118.082.117.082.118.083.118.083.117.084.118.084.118.084.117.084.118.085.118.085.117.086.118.086.118.086.117.087.118.087.118.088.117.088.118.088.118.088.117.09.118.089.118.09.118.09.117.09.118.09.118.092.117.092.118.092.118.092.117.093.118.093.118.094.117.094.118.095.118.095.117.095.118.096.118.096.117.097.118.097.118.097.117.098.118.099.118.099.117.099.118.1.118.1.117.1.118.102.118.101.117.102.118.103.118.103.117.103.118.104.118.104.117.105.118.106.118.106.118.106.117.107.118.107.118.108.117.109.118.108.118.11.117.11.118.11.118.111.117.112.118.112.118.113.117.113.118.113.118.115.117.114.118.116.118.116.117.116.118.117.118.118.117.118.118.12.118.118.117.12.118.121.118.121.117.122.118.123.118.123.117.123.118.125.118.124.118.126.117.126.118.127.118.128.117.128.118.129.118.129.117.13.118.13.118.132.117.133.118.132.118.134.117.134.118.135.118.136.117.137.118.137.118.138.117.138.118.14.118.14.117.14.118.142.118.143.117.143.118.144.118.144.117.146.118.146.118.147.117.148.118.15.118.149.117.15.118.151.118.152.118.153.117.154.118.155.118.156.117.156.118.157.118.159.117.159.118.16.118.16.117.163.118.163.118.163.117.165.118.166.118.167.117.167.118.17.118.169.117.17.118.172.118.173.117.174.118.174.118.176.117.177.118.178.118.18.117.18.118.18.118.183.117.183.118.185.118.186.117.187.118.188.118.19.117.19.118.191.118.193.118.194.117.195.118.197.118.198.117.199.118.2.118.202.117.203.118.204.118.206.117.207.118.208.118.21.117.21.118.213.118.214.117.215.118.217.118.218.117.22.118.221.118.223.117.224.118.226.118.227.117.229.118.23.118.232.117.234.118.235.118.237.118.238.117.24.118.242.117.244.118.245.118.247.118.25.117.25.118.252.118.255.117.256.118.258.118.26.117.261.118.264.118.266.117.268.118.27.118.27.117.275.118.275.118.278.117.28.118.283.118.284.117.286.118.289.118.291.117.293.118.296.118.297.117.3.118.303.118.305.117.307.118.31.118.313.117.314.118.318.118.32.118.322.117.326.118.327.118.331.117.333.118.337.118.338.117.342.118.345.118.347.117.351.118.354.118.356.117.36.118.363.118.365.117.37.118.372.118.376.117.379.118.382.118.386.117.389.118.393.118.396.117.4.118.403.118.407.117.411.118.415.118.419.117.422.118.427.118.43.117.435.118.439.118.443.118.447.117.451.118.456.118.46.117.466.06.234.058.235.059.237.059.237.058.239.06.24.058.241.059.243.059.243.059.245.058.246.06.248.058.248.059.25.059.251.059.252.058.254.06.255.058.256.059.258.059.259.059.26.058.262.06.263.058.264.059.266.059.267.059.269.059.27.058.271.06.273.058.274.059.276.059.277.059.28.058.28.06.281.058.283.059.285.059.286.059.288.058.29.06.29.058.293.059.295.059.296.059.297.058.3.06.3.058.303.059.304.059.306.059.308.058.309.06.311.058.313.059.315.059.316.059.319.058.32.06.322.058.324.059.325.059.328.059.33.059.33.058.334.06.336.058.337.059.34.059.34.059.344.058.346.06.347.058.35.059.351.059.354.059.356.058.358.06.36.058.363.059.365.059.367.059.37.058.37.06.375.058.376.059.378.059.381.059.383.058.386.06.388.058.391.059.393.059.396.059.398.058.4.06.404.058.406.059.408.059.412.059.413.059.417.058.42.06.422.058.425.059.427.059.43.059.434.058.437.06.439.058.442.059.446.059.448.059.451.058.455.06.457.058.461.059.464.059.467.059.47.058.474.06.477.058.48.059.485.059.487.059.49.058.495.06.497.058.502.059.505.059.508.059.512.059.516.058.52.06.524.058.527.059.532.059.535.059.54.058.543.06.547.058.552.059.556.059.56.059.564.058.569.06.573.058.577.059.582.059.586.059.591.058.596.06.6.058.605.059.61.059.615.059.62.058.624.06.63.058.635.059.64.059.645.059.65.058.656.06.661.058.667.059.672.059.678.059.683.059.69.058.695.06.701.058.707.059.713.059.72.059.725.058.732.06.738.058.745.059.751.059.758.059.765.058.771.06.779.058.785.059.793.059.8.059.806.058.815.06.822.058.83.059.837.059.845.059.853.058.86.06.87.058.877.059.886.059.895.059.903.058.912.06.92.058.93.059.94.059.947.059.958.059.967.058.977.06.987.058.997.059 1.007.059 1.017.059 1.028.058 1.039.06 1.049.058 1.06.059 1.072.059 1.082.059 1.095.058 1.106.06 1.118.058 1.13.059 1.142.059 1.154.059 1.168.058 1.18.06 1.194.058 1.207.059 1.22.059 1.234.059 1.248.058 1.263.06 1.276.058 1.292.059 1.307.059 1.322.059 1.337.058 1.354.06 1.37.058 1.385.059 1.403.059 1.42.059 1.436.059 1.455.058 1.472.06 1.491.058 1.51.059 1.528.059 1.548.059 1.567.058 1.588.06 1.608.058 1.629.059 1.65.059 1.672.059 1.694.058 1.717.06 1.74.058 1.763.059 1.787.059 1.812.059 1.836.058 1.862.06 1.889.058 1.914.059 1.943.059 1.97.059 1.997.058 2.027.06 2.057.058 2.087.059 2.118.059 2.15.059 2.18.058 2.216.06 2.248.058 2.283.059 2.319.059 2.355.059 2.392.058 2.43.06 2.468.058 2.509.059 2.55.059 2.59.059 2.634.059 2.678.058 2.723.06 2.769.058 2.816.059 2.865.059 2.915.059 2.966.058 3.018.06 3.073.058 3.127.059 3.185.059 3.243.059 3.303.058 3.364.06 3.428.058 3.494.059 3.56.059 3.63.059 3.701.058 3.775.06 3.85.058 3.927.059 4.008.059 4.09.059 4.176.058 4.263.06 4.354.058 4.448.059 4.545.059 4.644.059 4.747.058 4.855.06 4.964.058 5.08.059 5.196.059 5.319.059 5.446.059 5.577.058 5.713.06 5.854.058 6 .059 6.153.059 6.31.059 6.473.058 6.645.06 6.821.058 7.006.059 7.198.059 7.398.059 7.606.058 7.823.06 8.05.058 8.288.059 8.534.059 8.793.059 9.064.058 9.347.06 9.643.058 9.954.059 10.282.059 10.623.059 10.984.059 11.363.058 11.76.06 12.182.058 12.624.059 13.092.059 13.586.058 14.108.06 14.662.058 15.248.059 15.87.059 16.532.059 17.235.059 17.985.058 18.784.06 19.638.058 20.55.059 21.53.059 22.58.059 23.71.058 24.924.06 26.237.058 27.655.059 29.19.059 30.86.059 32.674.058 34.655.06 36.82.058 39.197.059 41.81.059 44.692.059 47.885.058 51.432.06 55.389.058 59.819.059 64.805.059 70.44.059 76.842.059 84.162.058 92.578.06 102.323.058 113.691.059 127.068.059 142.95.058 162.012.06 185.155.058 213.641.059 249.248.059 294.566.059 353.478.059 432.03.058 540.037.06 694.333.058 925.777.059 1296.09.059 1944.134.059 3240.218.058 6480.442.06 19441.327.058 544296.647m0-1166666.6l.059 544604.647.059 19441.327.059 6480.442.058 3240.218.06 1944.133.058 1296.09.059 925.778.059 694.333.059 540.037.058 432.03.06 353.478.058 294.566.059 249.248.059 213.64.059 185.156.058 162.011.06 142.951.058 127.068.059 113.691.059 102.323.059 92.578.059 84.162.058 76.843.06 70.44.058 64.804.059 59.82.059 55.388.059 51.432.058 47.885.06 44.693.058 41.809.059 39.196.059 36.82.059 34.656.058 32.674.06 30.86.058 29.19.059 27.655.059 26.237.059 24.924.058 23.71.06 22.58.058 21.53.059 20.55.059 19.638.059 18.784.058 17.985.06 17.235.058 16.532.059 15.87.059 15.248.059 14.662.058 14.108.06 13.586.058 13.092.059 12.624.059 12.181.059 11.761.059 11.363.058 10.984.06 10.623.058 10.281.059 9.955.059 9.644.059 9.346.058 9.064.06 8.793.058 8.534.059 8.287.059 8.05.059 7.824.058 7.606.06 7.398.058 7.198.059 7.006.059 6.821.059 6.644.058 6.474.06 6.31.058 6.153.059 6 .059 5.854.059 5.713.058 5.577.06 5.446.058 5.32.059 5.196.059 5.079.059 4.964.058 4.855.06 4.747.058 4.644.059 4.545.059 4.448.059 4.354.059 4.263.058 4.176.06 4.09.058 4.008.059 3.927.059 3.85.059 3.775.058 3.7.06 3.63.058 3.561.059 3.494.059 3.428.059 3.364.058 3.303.06 3.243.058 3.185.059 3.127.059 3.073.059 3.018.058 2.966.06 2.915.058 2.865.059 2.816.059 2.769.059 2.723.058 2.678.06 2.634.058 2.59.059 2.55.059 2.509.059 2.469.058 2.43.06 2.391.058 2.355.059 2.319.059 2.283.059 2.248.059 2.215.058 2.182.06 2.15.058 2.117.059 2.087.059 2.057.059 2.027.058 1.998.06 1.97.058 1.941.059 1.915.059 1.889.059 1.862.058 1.836.06 1.812.058 1.787.059 1.764.059 1.74.059 1.716.058 1.694.06 1.672.058 1.65.059 1.63.059 1.607.059 1.588.058 1.567.06 1.548.058 1.528.059 1.51.059 1.49.059 1.473.058 1.455.06 1.437.058 1.42.059 1.402.059 1.386.059 1.37.059 1.353.058 1.337.06 1.322.058 1.307.059 1.291.059 1.277.059 1.263.058 1.248.06 1.234.058 1.22.059 1.207.059 1.194.059 1.18.058 1.167.06 1.155.058 1.142.059 1.13.059 1.118.059 1.106.058 1.095.06 1.082.058 1.072.059 1.06.059 1.05.059 1.038.058 1.028.06 1.017.058 1.007.059.997.059.987.059.977.058.967.06.958.058.948.059.939.059.93.059.92.059.912.058.903.06.895.058.886.059.877.059.87.059.86.058.853.06.845.058.838.059.83.059.821.059.815.058.807.06.8.058.792.059.785.059.779.059.771.058.765.06.758.058.751.059.745.059.738.059.732.058.725.06.72.058.713.059.707.059.701.059.695.059.69.058.683.06.678.058.672.059.667.059.661.059.656.058.65.06.645.058.64.059.635.059.63.059.624.058.62.06.615.058.61.059.605.059.6.059.596.058.59.06.587.058.582.059.577.059.573.059.569.058.564.06.56.058.556.059.552.059.547.059.543.058.54.06.535.058.532.059.527.059.524.059.52.059.516.058.512.06.508.058.505.059.502.059.497.059.495.058.49.06.487.058.484.059.48.059.478.059.473.058.47.06.468.058.464.059.46.059.458.059.455.058.451.06.448.058.446.059.442.059.44.059.436.058.433.06.43.058.428.059.425.059.423.059.419.058.416.06.414.058.412.059.408.059.406.059.403.059.401.058.398.06.396.058.393.059.39.059.389.059.385.058.384.06.38.058.38.059.375.059.374.059.372.058.37.06.366.058.365.059.362.059.36.059.359.058.356.06.354.058.351.059.35.059.347.059.346.058.343.06.342.058.339.059.337.059.336.059.333.058.331.06.33.058.328.059.325.059.324.059.322.059.32.058.319.06.316.058.315.059.313.059.311.059.31.058.307.06.306.058.304.059.303.059.3.059.3.058.297.06.296.058.295.059.292.059.291.059.29.058.288.06.286.058.285.059.283.059.282.059.28.058.279.06.277.058.276.059.274.059.273.059.271.058.27.06.269.058.267.059.266.059.264.059.263.058.262.06.26.058.259.059.258.059.256.059.255.059.254.058.252.06.251.058.25.059.248.059.248.059.246.058.245.06.243.058.243.059.241.059.24.059.239.058.237.06.237.058.235.059.234.118.465.117.46.118.457.118.451.117.447.118.443.118.439.117.435.118.43.118.427.117.422.118.419.118.415.117.41.118.408.118.403.117.4.118.396.118.393.117.39.118.385.118.382.118.38.117.375.118.372.117.37.118.365.118.363.118.36.117.356.118.354.118.35.117.348.118.345.118.342.117.338.118.337.118.333.117.33.118.328.118.326.117.322.118.32.118.318.117.314.118.313.118.31.117.307.118.305.118.302.117.3.118.298.118.296.117.293.118.291.118.289.117.286.118.284.118.283.117.28.118.277.118.276.118.274.117.272.118.27.118.267.117.266.118.264.118.261.117.26.118.258.118.256.117.255.118.252.118.25.117.25.118.247.118.245.117.244.118.242.118.24.117.238.118.237.118.235.117.234.118.232.118.23.117.23.118.226.118.226.117.224.118.223.118.221.117.22.118.218.118.217.117.215.118.214.118.212.118.211.117.21.118.208.118.207.117.206.118.204.118.203.117.202.118.2.118.2.117.197.118.197.118.195.117.194.118.193.118.191.117.19.118.19.118.188.117.187.118.186.118.185.117.183.118.182.118.182.117.18.118.179.118.178.117.177.118.176.118.174.117.174.118.173.118.172.117.17.118.17.118.169.118.167.117.167.118.166.118.165.117.163.118.163.118.162.117.161.118.16.118.16.117.158.118.157.118.156.117.156.118.155.118.153.117.154.118.152.118.15.117.151.118.15.118.149.117.148.118.147.118.146.117.146.118.144.118.144.117.143.118.143.118.141.117.141.118.14.118.14.118.138.117.138.118.137.118.137.117.136.118.135.118.134.117.133.118.133.118.133.117.131.118.13.118.131.117.13.118.128.118.128.117.128.118.127.118.126.117.126.118.124.118.125.117.123.118.123.118.123.117.122.118.12.118.122.117.12.118.119.118.119.117.118.118.118.118.117.117.116.118.116.118.115.118.115.117.115.118.113.118.113.117.113.118.112.118.112.117.11.118.111.118.11.117.11.118.108.118.109.117.108.118.107.118.107.117.106.118.106.118.106.117.105.118.104.118.104.117.103.118.103.118.103.117.102.118.101.118.101.117.101.118.1.118.1.117.1.118.098.118.099.117.098.118.097.118.097.117.097.118.096.118.096.118.095.117.095.118.095.118.094.117.094.118.093.118.093.117.092.118.092.118.092.117.091.118.091.118.09.117.09.118.09.118.09.117.089.118.088.118.088.117.088.118.088.118.087.117.087.118.086.118.086.117.085.118.086.118.085.117.084.118.084.118.084.118.084.117.083.118.083.117.082.118.082.118.082.118.082.117.08.118.082.118.08.117.08.118.08.118.08.117.079.118.079.118.078.117.078.118.078.118.078.117.077.118.077.118.077.117.076.118.076.118.076.117.076.118.075.118.075.117.074.118.075.118.074.117.073.118.074.118.073.117.073.118.073.118.072.117.072.118.072.118.071.118.071.117.071.118.07.118.071.117.07.118.07.118.07.117.07.118.068.118.07.117.068.118.068.118.068.117.068.118.067.118.068.117.067.118.067.118.066.117.066.118.066.118.066.117.066.118.065.118.065.117.065.118.065.118.064.117.064.118.064.118.064.117.063.118.064.118.063.117.062.118.063.118.062.118.062.117.062.118.062.118.061.117.062.118.06.118.061.117.061.118.06.118.06.117.06.118.06.118.06.117.059.118.06.118.058.117.059.118.058.118.058.117.059.118.057.118.058.117.058.118.057.118.057.117.057.118.057.118.056.117.056.118.057.118.056.117.055.118.056.118.055.117.056.118.055.118.054.118.055.117.054.118.055.118.054.117.054.118.053.118.054.117.053.118.054.118.053.117.052.118.053.118.053.117.052.118.052.118.052.117.052.118.052.118.051.117.051.118.052.118.05.117.051.118.051.118.05.117.05.118.051.118.05.117.05.118.05.118.05.117.048.118.05.118.049.118.049.117.048.118.049.118.048.117.049.118.048.118.048.117.048.118.047.118.048.117.047.118.048.118.047.117.047.118.046.118.047.117.047.118.046.118.046.117.046.118.046.118.046.117.046.118.045.118.046.117.045.118.045.118.045.117.045.118.044.118.045.117.044.118.045.118.044.117.044.118.044.118.044.118.043.117.044.118.043.118.043.117.043.118.043.118.043.117.043.118.043.118.042.117.042.118.043.118.042.117.042.118.042.118.041.117.042.118.041.118.042.117.041.118.041.118.041.117.041.118.041.118.04.117.041.118.04.118.04.117.041.118.04.118.04.117.04.118.04.118.04.117.039.118.04.118.038.117.04.118.039.118.039.118.039.117.038.118.039.118.038.117.039.118.038.118.038.117.038.118.038.118.038.117.038.118.038.118.037.117.038.118.037.118.037.117.037.118.037.118.037.117.037.118.037.118.037.117.036.118.036.118.037.117.036.118.036.118.036.117.036.118.036.118.036.118.035.117.036.118.035.117.036.118.035.118.035.118.035.117.035.118.035.118.035.117.035.118.034.118.035.117.034.118.034.118.035.117.034.118.034.118.034.117.034.118.034.118.033.117.034.118.033.118.034.117.033.118.033.118.034.117.033.118.033.118.033.117.033.118.032.118.033.117.033.118.032.118.032.117.033.118.032.118.032.118.032.117.032.118.032.118.032.117.032.118.031.118.032.117.031.118.032.118.031.117.032.118.03.118.032.117.03.118.032.118.03.117.031.118.031.118.03.117.031.118.03.118.031.117.03.118.03.118.031.117.03.118.03.118.03.117.03.118.03.118.03.117.03.118.029.118.03.117.029.118.03.118.029.118.029.117.029.118.03.118.028.117.03.118.028.118.029.117.029.118.028.118.029.117.028.118.029.118.028.117.028.118.029.118.028.117.028.118.028.118.028.117.028.118.028.118.028.117.027.118.028.118.028.117.027.118.028.118.027.117.027.118.028.118.027.117.027.118.027.118.027.117.027.118.027.118.027.118.026.117.027.118.027.118.026.117.027.118.026.118.026.117.027.118.026.118.026.117.026.118.026.118.026.117.026.118.026.118.026.117.026.118.026.118.025.117.026.118.025.118.026.117.025.118.026.118.025.117.025.118.025.118.026.117.025.118.025.118.025.117.025.118.024.118.025.118.025.117.025.118.024.118.025.117.024.118.025.118.024.117.025.118.024.118.024.117.024.118.024.118.024.117.025.118.023.118.024.117.024.118.024.118.024.117.024.118.023.118.024.117.023.118.024.118.023.117.024.118.023.118.023.117.024.118.023.118.023.117.023.118.023.118.023.117.023.118.023.118.023.118.023.117.022.118.023.118.023.117.022.118.023.118.022.117.023.118.022.118.023.117.022.118.022.118.022.117.023.118.022.118.022.117.022.118.022.118.022.117.022.118.021.118.022.117.022.118.022.118.021.117.022.118.021.118.022.117.021.118.022.118.021.117.022.118.02.118.022.117.021.118.021.118.022.117.02.118.022.118.02.118.022.117.02.118.021.118.021.117.021.118.02.118.021.117.021.118.02.118.021.117.02.118.021.118.02.117.021.118.02.118.02.117.02.118.021.118.02.117.02.118.02.118.02.117.02.118.02.118.02.117.02.118.02.118.02.117.02.118.02.118.02.118.019.117.02.118.02.117.019.118.02.118.019.118.02.117.018.118.02.118.02.117.018.118.02.118.019.117.019.118.02.118.018.117.02.118.018.118.02.117.018.118.019.118.019.117.019.118.018.118.02.117.018.118.019.118.018.117.019.118.018.118.019.117.018.118.019.118.018.117.019.118.018.118.018.117.018.118.019.118.018.118.018.117.018.118.018.118.018.117.018.118.018.118.018.117.018.118.018.118.018.117.018.118.018.118.017.117.018.118.018.118.017.117.018.118.018.118.017.117.018.118.017.118.018.117.017.118.017.118.018.117.017.118.017.118.018.117.017.118.017.118.017.117.017.118.017.118.017.117.018.118.017.118.016.118.017.117.017.118.017.118.017.117.017.118.017.118.016.117.017.118.017.118.016.117.017.118.017.118.016.117.017.118.016.118.017.117.016.118.017.118.016.117.016.118.017.118.016.117.016.118.016.118.017.117.016.118.016.118.016.117.016.118.016.118.016.117.016.118.016.118.016.117.016.118.016.118.016.118.015.117.016.118.016.118.016.117.015.118.016.118.016.117.015.118.016.118.016.117.015.118.016.118.015.117.016.118.015.118.015.117.016.118.015.118.015.117.016.118.015.118.015.117.016.118.015.118.015.117.015.118.015.118.015.117.015.118.015.118.015.117.015.118.015.118.015.118.015.117.015.118.015.118.014.117.015.118.015.118.015.117.014.118.015.118.015.117.014.118.015.118.015.117.014.118.015.118.014.117.015.118.014.118.015.117.014.118.014.118.015.117.014.118.014.118.015.117.014.118.014.118.014.117.015.118.014.118.014.117.014.118.014.118.014.117.014.118.014.118.014.118.014.117.014.118.014.118.014.117.014.118.014.118.014.117.013.118.014.118.014.117.014.118.013.118.014.117.014.118.013.118.014.117.014.118.013.118.014.117.013.118.014.118.013.117.014.118.013.118.014.117.013.118.014.118.013.117.013.118.013.118.014.117.013.118.013.118.013.117.014.118.013.118.013.117.013.118.013.118.013.118.013.117.013.118.014.118.013.117.013.118.013.118.012.117.013.118.013.118.013.117.013.118.013.118.013.117.012.118.013.118.013.117.013.118.012.118.013.117.013.118.013.118.012.117.013.118.012.118.013.117.012.118.013.118.013.117.012.118.013.118.012.118.012.117.013.118.012.117.013.118.012.118.012.118.013.117.012.118.012.118.012.117.013.118.012.118.012.117.012.118.012.118.013.117.012.118.012.118.012.117.012.118.012.118.012.117.012.118.012.118.012.117.012.118.012.118.012.117.012.118.011.118.012.117.012.118.012.118.012.117.012.118.011.118.012.117.012.118.012.118.011.118.012.117.012.118.011.118.012.117.011.118.012.118.012.117.011.118.012.118.011.117.012.118.011.118.012.117.011.118.011.118.012.117.011.118.012.118.011.117.011.118.012.118.01.117.012.118.011.118.012.117.011.118.011.118.011.117.012.118.01.118.012.117.011.118.011.118.011.117.011.118.011.118.011.118.011.117.011.118.011.118.011.117.011.118.011.118.011.117.011.118.011.118.011.117.01.118.012.118.01.117.011.118.011.118.01.117.012.118.01.118.011.117.01.118.012.118.01.117.011.118.01.118.011.117.01.118.012.118.01.117.01.118.011.118.01.117.011.118.01.118.011.117.01.118.011.118.01.118.011.117.01.118.011.118.01.117.01.118.011.118.01.117.01.118.011.118.01.117.01.118.011.118.01.117.01.118.01.118.011.117.01.118.01.118.01.117.01.118.011.118.01.117.01.118.01.118.01.117.01.118.01.118.01.117.01.118.01.118.01.117.01.118.01.118.01.118.01.117.01.118.01.117.01.118.01.118.01.118.01.117.01.118.01.118.01.117.01.118.009.118.01.117.01.118.01.118.009.117.01.118.01.118.009.117.01.118.01.118.009.117.01.118.01.118.009.117.01.118.009.118.01.117.01.118.009.118.01.117.009.118.01.118.009.117.01.118.009.118.009.118.01.117.009.118.01.118.009.117.01.118.008.118.01.117.01.118.008.118.01.117.01.118.008.118.01.117.009.118.01.118.008.117.01.118.009.118.01.117.008.118.01.118.009.117.009.118.009.118.009.117.01.118.008.118.01.117.008.118.01.118.008.117.01.118.009.118.009.117.009.118.009.118.009.117.009.118.008.118.01.118.008.117.01.118.008.118.01.117.008.118.009.118.009.117.009.118.008.118.01.117.008.118.009.118.009.117.008.118.01.118.008.117.009.118.008.118.01.117.008.118.008.118.01.117.008.118.008.118.01.117.008.118.008.118.009.117.009.118.008.118.009.118.008.117.009.118.008.117.009.118.008.118.009.118.008.117.009.118.008.118.009.117.008.118.009.118.008.117.009.118.008.118.008.117.009.118.008.118.009.117.008.118.008.118.009.117.008.118.008.118.009.117.008.118.008.118.008.117.009.118.008.118.008.117.008.118.009.118.008.117.008.118.008.118.008.117.008.118.009.118.008.118.008.117.008.118.008.118.008.117.008.118.008.118.008.117.008.118.009.118.008.117.008.118.008.118.008.117.008.118.008.118.008.117.008.118.007.118.008.117.008.118.008.118.008.117.008.118.008.118.008.117.008.118.008.118.007.117.008.118.008.118.008.117.008.118.008.118.007.117.008.118.008.118.008.118.007.117.008.118.008.118.008.117.007.118.008.118.008.117.007.118.008.118.008.117.007.118.008.118.008.117.007.118.008.118.008.117.007.118.008.118.007.117.008.118.007.118.008.117.008.118.007.118.008.117.007.118.008.118.007.117.008.118.007.118.008.117.007.118.007.118.008.117.007.118.008.118.007.118.008.117.007.118.007.118.008.117.007.118.007.118.008.117.007.118.007.118.008.117.007.118.007.118.008.117.007.118.007.118.008.117.007.118.007.118.007.117.008.118.007.118.007.117.007.118.007.118.008.117.007.118.007.118.007.117.007.118.007.118.008.117.007.118.007.118.007.118.007.117.007.118.007.117.007.118.007.118.007.118.007.117.007.118.007.118.008.117.007.118.007.118.007.117.007.118.007.118.006.117.007.118.007.118.007.117.007.118.007.118.007.117.007.118.007.118.007.117.007.118.007.118.007.117.006.118.007.118.007.117.007.118.007.118.007.117.006.118.007.118.007.118.007.117.007.118.006.118.007.117.007.118.007.118.006.117.007.118.007.118.007.117.006.118.007.118.007.117.006.118.007.118.007.117.006.118.007.118.007.117.006.118.007.118.007.117.006.118.007.118.007.117.006.118.007.118.006.117.007.118.006.118.007.117.007.118.006.118.007.117.006.118.007.118.006.117.007.118.006.118.007.118.006.117.007.118.006.118.007.117.006.118.007.118.006.117.006.118.007.118.006.117.007.118.006.118.006.117.007.118.006.118.007.117.006.118.006.118.007.117.006.118.006.118.007.117.006.118.006.118.007.117.006.118.006.118.007.117.006.118.006.118.006.118.007.117.006.118.006.117.006.118.007.118.006.118.006.117.006.118.006.118.007.117.006.118.006.118.006.117.006.118.006.118.007.117.006.118.006.118.006.117.006.118.006.118.006.117.007.118.006.118.006.117.006.118.006.118.006.117.006.118.006.118.006.117.006.118.006.118.006.117.006.118.006.118.006.117.006.118.006.118.006.118.006.117.006.118.006.118.006.117.006.118.006.118.006.117.006.118.006.118.006.117.006.118.006.118.006.117.005.118.006.118.006.117.006.118.006.118.006.117.006.118.006.118.005.117.006.118.006.118.006.117.006.118.005.118.006.117.006.118.006.118.006.117.005.118.006.118.006.117.006.118.006.118.005.118.006.117.006.118.006.118.005.117.006.118.006.118.005.117.006.118.006.118.005.117.006.118.006.118.005.117.006.118.006.118.005.117.006.118.006.118.005.117.006.118.006.118.005.117.006.118.006.118.005.117.006.118.005.118.006.117.005.118.006.118.006.117.005.118.006.118.005.117.006.118.005.118.006.118.005.117.006.118.005.118.006.117.005.118.006.118.005.117.006.118.005.118.006.117.005.118.006.118.005.117.006.118.005.118.005.117.006.118.005.118.006.117.005.118.006.118.005.117.005.118.006.118.005.117.005.118.006.118.005.117.006.118.005.118.005.117.006.118.005.118.005.118.006.117.005.118.005.117.006.118.005.118.005.118.005.117.006.118.005.118.005.117.006.118.005.118.005.117.005.118.006.118.005.117.005.118.005.118.006.117.005.118.005.118.005.117.005.118.006.118.005.117.005.118.005.118.005.117.006.118.005.118.005.117.005.118.005.118.005.117.005.118.006.118.005.118.005.117.005.118.005.118.005.117.005.118.005.118.005.117.006.118.005.118.005.117.005.118.005.118.005.117.005.118.005.118.005.117.005.118.005.118.005.117.005.118.005.118.005.117.005.118.005.118.005.117.005.118.005.118.005.117.005.118.005.118.005.117.005.118.005.118.005.117.005.118.005.118.005.117.005.118.005.118.005.118.005.117.005.118.005.118.004.117.005.118.005.118.005.117.005.118.005.118.005.117.005.118.004.118.005.117.005.118.005.118.005.117.005.118.005.118.004.117.005.118.005.118.005.117.005.118.005.118.004.117.005.118.005.118.005.117.005.118.004.118.005.118.005.117.005.118.004.117.005.118.005.118.005.118.004.117.005.118.005.118.005.117.004.118.005.118.005.117.004.118.005.118.005.117.005.118.004.118.005.117.005.118.004.118.005.117.005.118.004.118.005.117.005.118.004.118.005.117.005.118.004" stroke="#000" mask="url(#b)"/><path fill="#FFF" mask="url(#b)" d="M0.3070831 307.760046L0.8906182 307.760046 0.8906182 -0.2399544 0.3070831 -0.2399544z"/><path fill="#FFF" mask="url(#b)" d="M481.7235 307.760046L482.307035 307.760046 482.307035 -0.2399544 481.7235 -0.2399544z"/><path fill="#FFF" mask="url(#b)" d="M0.3070831 0.3434L482.307083 0.3434 482.307083 -0.2399333 0.3070831 -0.2399333z"/><path fill="#FFF" mask="url(#b)" d="M0.3070831 307.760046L482.307083 307.760046 482.307083 307.176712 0.3070831 307.176712z"/></g></svg>